<svg xmlns="http://www.w3.org/2000/svg" viewBox="0 0 125 125"><path fill-rule="evenodd" clip-rule="evenodd" fill="#4B4A4A" d="M-5851.4-5273.5c-.9-1.7-14.3-24.8-15.1-26.2-.7-1.3-2.5-1.3-3.3 0-1.1 2-14.4 25-15.1 26.1-.8 1.4.2 2.9 1.6 2.9h30.3c1.5.1 2.3-1.6 1.6-2.8zm-15.3-20.5l-.4 14.6h-2.1l-.4-14.6h2.9zm-1.5 20.8c-1.1 0-1.8-.8-1.8-1.9 0-1.1.8-1.9 1.8-1.9 1.1 0 1.8.8 1.8 1.9 0 1-.7 1.9-1.8 1.9z"/><path fill-rule="evenodd" clip-rule="evenodd" fill="#FED204" d="M123.3 105.8c-3.4-6.1-51.8-89.8-54.8-95-2.7-4.6-9.2-4.7-11.9 0-4.2 7.2-52.4 90.6-54.7 94.8-3 5.2.8 10.5 5.9 10.5h109.6c5.6 0 8.3-5.8 5.9-10.3zM67.8 31.3l-1.5 52.8h-7.5l-1.5-52.8h10.5zm-5.3 75.4h-.1c-3.7 0-6.4-3-6.4-6.8 0-4 2.8-6.8 6.5-6.8 4 0 6.5 2.9 6.5 6.8 0 3.8-2.6 6.8-6.5 6.8z"/></svg>