<svg xmlns="http://www.w3.org/2000/svg" viewBox="0 0 128 128"><circle fill="#1D4923" cx="64" cy="64" r="63.9" stroke="#fff" stroke-width="6"/><path fill="#FFF" d="M58.7 104.4V95c-6.6-.3-13.1-2.1-16.8-4.3l3-11.6c4.2 2.3 10 4.4 16.4 4.4 5.6 0 9.5-2.2 9.5-6.1 0-3.8-3.2-6.1-10.5-8.6-10.6-3.6-17.8-8.5-17.8-18.1 0-8.7 6.1-15.5 16.7-17.6v-9.4h9.7v8.7c6.6.3 11.1 1.7 14.4 3.3l-2.9 11.2c-2.6-1.1-7.1-3.4-14.3-3.4-6.4 0-8.5 2.8-8.5 5.5 0 3.3 3.5 5.3 11.9 8.5C81.3 61.6 86 67.1 86 76c0 8.8-6.2 16.3-17.6 18.3v10.1h-9.7z"/></svg>