<svg xmlns="http://www.w3.org/2000/svg" version="1" viewBox="0 0 125 125" enable-background="new 0 0 125 125"><style type="text/css" id="style3">.st0{fill:#FAA323;} .st1{fill-rule:evenodd;clip-rule:evenodd;fill:#FFFFFF;} .st2{fill:#FFFFFF;}</style><circle id="XMLID_1_" class="st0" cx="62.7" cy="62.5" r="62.1"/><path id="path4192" d="M99.27 69.735c1.49 0 2.878-1.21 3.08-2.687 0 0 .286-2.077.286-4.546 0-2.47-.285-4.547-.285-4.547-.202-1.478-1.59-2.687-3.08-2.687h-7.706c-1.492 0-3.04-.95-3.442-2.113-.4-1.162-.952-4.89.103-5.945l5.447-5.447c1.055-1.055 1.136-2.856.18-4.002l-6.408-6.41c-1.146-.955-2.946-.873-4.002.18l-5.447 5.45c-1.054 1.054-2.812 1.48-3.904.944-1.093-.535-4.155-2.792-4.155-4.284v-7.707c0-1.492-1.21-2.88-2.686-3.083 0 0-2.078-.286-4.548-.286-2.468 0-4.545.286-4.545.286-1.48.203-2.688 1.59-2.688 3.083v7.706c0 1.49-.95 3.04-2.114 3.44-1.163.4-4.89.953-5.946-.1l-5.45-5.45c-1.054-1.055-2.855-1.137-4-.182l-6.41 6.41c-.956 1.146-.875 2.947.18 4.002l5.447 5.447c1.055 1.054 1.48 2.81.945 3.903-.536 1.092-2.792 4.155-4.284 4.155h-7.706c-1.492 0-2.878 1.21-3.082 2.686 0 0-.286 2.078-.286 4.548s.286 4.547.286 4.547c.203 1.48 1.59 2.687 3.082 2.687h7.706c1.492 0 3.04.95 3.442 2.114.4 1.162.953 4.89-.102 5.944l-5.448 5.45c-1.054 1.054-1.135 2.854-.18 4l6.41 6.41c1.146.956 2.946.876 4-.18l5.448-5.447c1.055-1.054 2.812-1.48 3.905-.945 1.093.536 4.154 2.793 4.154 4.285v7.706c0 1.49 1.21 2.877 2.688 3.08 0 0 2.076.285 4.546.285 2.473 0 4.55-.286 4.55-.286 1.477-.204 2.685-1.59 2.685-3.08V91.36c0-1.492.95-3.042 2.114-3.443 1.162-.4 4.89-.953 5.945.102l5.446 5.447c1.056 1.053 2.857 1.135 4.003.18l6.41-6.41c.954-1.145.873-2.945-.183-4l-5.447-5.447c-1.055-1.055-1.48-2.812-.945-3.905.535-1.094 2.792-4.155 4.284-4.155h7.707zM62.7 77.12c-8.073 0-14.618-6.545-14.618-14.62 0-8.072 6.545-14.618 14.618-14.618 8.074 0 14.62 6.545 14.62 14.62 0 8.072-6.546 14.617-14.62 14.617z" fill="#fff"/></svg>