<svg xmlns="http://www.w3.org/2000/svg" version="1" id="Layer_1" viewBox="0 0 125 125"><style id="style3">.st0{fill:#FAA323;} .st1{fill-rule:evenodd;clip-rule:evenodd;fill:#FFFFFF;} .st2{fill:#FFFFFF;}</style><circle id="XMLID_1_" class="st0" cx="62.7" cy="62.5" r="62.1"/><path id="path4192" d="M108.484 71.558c1.868 0 3.605-1.514 3.86-3.364 0 0 .356-2.6.356-5.692s-.358-5.692-.358-5.692c-.254-1.85-1.99-3.364-3.857-3.364h-9.65c-1.866 0-3.806-1.19-4.308-2.646-.503-1.455-1.194-6.123.127-7.443l6.82-6.82c1.32-1.32 1.423-3.575.227-5.01L93.68 23.5c-1.436-1.196-3.69-1.094-5.01.227l-6.82 6.82c-1.32 1.32-3.522 1.853-4.89 1.183-1.367-.67-5.2-3.496-5.2-5.364v-9.648c0-1.868-1.514-3.604-3.364-3.86 0 0-2.6-.357-5.692-.357-3.09 0-5.69.36-5.69.36-1.852.254-3.366 1.99-3.366 3.86v9.647c0 1.868-1.19 3.807-2.646 4.31-1.456.502-6.123 1.193-7.444-.128l-6.82-6.82c-1.32-1.32-3.575-1.424-5.01-.228L23.7 31.527c-1.197 1.435-1.095 3.69.226 5.01l6.82 6.82c1.32 1.32 1.853 3.52 1.182 4.888-.67 1.367-3.496 5.2-5.364 5.2h-9.647c-1.868 0-3.604 1.515-3.86 3.365 0 0-.357 2.6-.357 5.69 0 3.094.358 5.693.358 5.693.254 1.85 1.99 3.364 3.86 3.364h9.647c1.868 0 3.807 1.19 4.31 2.646.5 1.455 1.192 6.122-.13 7.443l-6.818 6.82c-1.32 1.32-1.423 3.574-.226 5.01l8.026 8.025c1.435 1.198 3.688 1.097 5.01-.224l6.82-6.82c1.32-1.32 3.52-1.853 4.888-1.183 1.368.67 5.2 3.496 5.2 5.364v9.648c0 1.867 1.515 3.604 3.366 3.858 0 0 2.598.357 5.69.357 3.094 0 5.693-.358 5.693-.358 1.85-.255 3.364-1.99 3.364-3.858v-9.648c0-1.868 1.19-3.808 2.646-4.31 1.456-.502 6.123-1.192 7.444.128l6.82 6.82c1.32 1.32 3.574 1.422 5.01.226l8.023-8.023c1.197-1.435 1.096-3.688-.226-5.01l-6.82-6.82c-1.32-1.32-1.853-3.52-1.182-4.888.67-1.37 3.495-5.203 5.363-5.203h9.65zM62.7 80.803c-10.108 0-18.302-8.193-18.302-18.302 0-10.105 8.194-18.3 18.302-18.3 10.108 0 18.302 8.194 18.302 18.3 0 10.11-8.193 18.304-18.3 18.304z" fill="#fff"/></svg>