<svg version="1" id="Layer_1" xmlns="http://www.w3.org/2000/svg" viewBox="0 0 125 125"><style>.st0{fill:#FAA323;} .st1{fill-rule:evenodd;clip-rule:evenodd;fill:#FFFFFF;} .st2{fill:#FFFFFF;}</style><circle id="XMLID_1_" class="st0" cx="62.7" cy="62.5" r="62.1"/><path class="st1" d="M69 52.1l1.1-6.1-6.1-1c.1-2.4-.3-4.8-1.1-7l5.2-3-3.1-5.4-5.1 3c-1.1-1.5-2.5-2.8-4-3.8l2.5-5.3-5.6-2.6-2.4 5.2c-.7-.2-1.4-.4-2.1-.5-1.2-.2-2.3-.3-3.5-.3l-1-5.6-6.1 1.1 1 5.5c-1.8.6-3.5 1.5-5.1 2.6l-4-4-4.4 4.4 4 4c-1.1 1.5-2 3.2-2.6 5.1l-5.6-1-1 6.1 5.6 1c0 2.5.5 4.9 1.4 7.2l-5.1 2.9 3.1 5.3 5.2-3c1.2 1.4 2.5 2.6 4.1 3.7L31.7 66l5.6 2.6 2.6-5.5c.5.1 1.1.3 1.6.4 1.3.2 2.5.3 3.7.3l1.1 6.1 6.1-1.1-1.1-6.1c1.7-.6 3.3-1.4 4.7-2.5l4.4 4.4 4.4-4.4-4.4-4.4c1-1.4 1.9-3 2.5-4.7l6.1 1zm-15.1-6c-.9 5-5.6 8.3-10.6 7.4-5-.9-8.3-5.6-7.4-10.6.9-5 5.6-8.3 10.6-7.4 4.9.9 8.2 5.6 7.4 10.6zM45 39c-3.1 0-5.6 2.5-5.6 5.6 0 3.1 2.5 5.6 5.6 5.6 3.1 0 5.6-2.5 5.6-5.6.1-3.1-2.4-5.6-5.6-5.6z"/><path class="st2" d="M79.9 65.9c-7.3.1-13.1 6.1-13 13.4.1 7.3 6.1 13.1 13.4 13 7.3-.1 13.1-6.1 13.1-13.4-.2-7.3-6.2-13.1-13.5-13zm.2 17.7c-2.5 0-4.5-2-4.5-4.4 0-2.5 2-4.5 4.4-4.5 2.5 0 4.5 2 4.5 4.4.1 2.4-1.9 4.4-4.4 4.5zm24.6-7.3L98.8 75c-.2-.8-.4-1.6-.7-2.4l4.4-4.1c.2-.1.2-.3.1-.5l-2.1-3.6c-.1-.2-.3-.2-.5-.1l-5.7 1.8c-.5-.6-1.1-1.2-1.7-1.7l1.7-5.8c.1-.2 0-.4-.1-.5L90.5 56c-.2-.1-.4 0-.5.1l-4 4.5c-.8-.3-1.6-.5-2.4-.6l-1.4-5.8c0-.2-.2-.4-.4-.4h-4.2c-.2 0-.4.2-.4.4l-1.3 5.9c-.8.2-1.6.4-2.4.7l-4.1-4.4c-.1-.2-.3-.2-.5-.1l-3.6 2.1c-.2.1-.2.3-.1.5l1.8 5.7c-.6.5-1.2 1.1-1.7 1.7l-5.8-1.7c-.2-.1-.4 0-.5.1l-2.1 3.7c-.1.2 0 .4.1.5l4.5 4c-.2.8-.5 1.6-.6 2.4l-5.8 1.4c-.2 0-.4.2-.4.4v4.2c0 .2.2.4.4.4L61 83c.2.8.4 1.6.7 2.4l-4.4 4.1c-.2.1-.2.3-.1.5l2.1 3.6c.1.2.3.2.5.1l5.7-1.8c.5.6 1.1 1.2 1.7 1.7l-1.7 5.8c-.1.2 0 .4.1.5l3.7 2.1c.2.1.4 0 .5-.1l4-4.5c.8.2 1.6.5 2.4.6l1.4 5.8c0 .2.2.4.4.4h4.2c.2 0 .4-.2.4-.4l1.3-5.9c.8-.2 1.6-.4 2.4-.7l4.1 4.4c.1.2.3.2.5.1l3.6-2.1c.2-.1.2-.3.1-.5l-1.8-5.7c.6-.5 1.2-1.1 1.7-1.7l5.8 1.7c.2.1.4 0 .5-.1l2.1-3.7c.1-.2 0-.4-.1-.5l-4.5-4c.3-.8.5-1.6.6-2.4l5.8-1.4c.2 0 .4-.2.4-.4v-4.2c0-.2-.2-.4-.4-.4zM80.2 95c-8.8.1-16-6.9-16.1-15.8-.1-8.8 7-16 15.8-16.1 8.8-.1 16 7 16.1 15.8.1 8.8-7 16-15.8 16.1z"/></svg>