<svg xmlns="http://www.w3.org/2000/svg" viewBox="0 0 128 128" enable-background="new 0 0 128 128"><circle fill="#33a02c" cx="64" cy="64" r="63.9" stroke="#fff" stroke-width="6"/><g fill="#fff"><path d="M64 51.2c16.7-14.8.1-31.7 0-31.8-.1 0-16.7 17 0 31.8zM62.9 59.9c-6-21.5-28.5-14-28.6-13.9 0 .1 8 22.4 28.6 13.9zM65 77.7c20.6 8.5 28.6-13.8 28.6-13.9-.1-.1-22.5-7.6-28.6 13.9zM34.3 63.8c0 .1 8 22.4 28.6 13.9-6-21.5-28.5-14-28.6-13.9zM65 59.9C85.6 68.4 93.6 46.1 93.7 46c-.2 0-22.6-7.6-28.7 13.9zM64 81.9c-1.1 0-2 .9-2 2v22.8c0 1.1.9 2 2 2s2-.9 2-2V83.9c0-1.1-.9-2-2-2z"/></g></svg>