<svg id="Layer_1" xmlns="http://www.w3.org/2000/svg" viewBox="-333 244 125 125"><style>.st0{fill:#896722;} .st1{fill-rule:evenodd;clip-rule:evenodd;fill:#FFFFFF;}</style><circle id="XMLID_1_" class="st0" cx="-270.3" cy="306.5" r="62.1"/><path id="XMLID_2_" class="st1" d="M-242.2 310.2s-11.2-12.4-26.6-12.4c-15.1 0-30 12.4-30 12.4l-8.4-3.8v11.2c1.3.5 2.3 1.8 2.3 3.4 0 1.6-1 2.9-2.3 3.4l2.5 7.5h-7.3l2.5-7.6c-1.2-.6-2-1.8-2-3.4 0-1.5.8-2.7 2-3.3v-12.4l-12.2-5.5 53.6-26.2L-219 300l-23.2 10.2zm-27.2-6.2c15.5 0 23.1 8.9 23.1 8.9v18.6s-7.9 7-24.3 7-21.9-7-21.9-7V313s7.6-9 23.1-9zm-.3 30.5c10.8 0 19.5-2.4 19.5-5.3s-8.7-5.3-19.5-5.3-19.5 2.4-19.5 5.3 8.7 5.3 19.5 5.3z"/></svg>