<svg version="1" id="Layer_1" xmlns="http://www.w3.org/2000/svg" viewBox="0 0 125 125"><style>.st0{fill:#0A713A;} .st1{fill:#FFFFFF;}</style><circle id="XMLID_1_" class="st0" cx="62.5" cy="62.5" r="62.1"/><g id="XMLID_3_"><path id="XMLID_4_" class="st1" d="M58.3 89.5c-6.1-.3-11.9-1.6-17.6-4.1V71.6c3.2 1.6 6.7 3 10.5 4.1 3.8 1.1 7.1 1.6 9.9 1.6 2.4 0 4.1-.3 5.2-.9 1.1-.6 1.6-1.5 1.6-2.9 0-.9-.4-1.7-1.2-2.3-.8-.6-2.1-1.4-4-2.2-1.8-.8-4.3-1.8-7.5-2.9-3.5-1.3-6.4-2.8-8.5-4.4-2.2-1.6-3.7-3.4-4.7-5.5-1-2-1.5-4.5-1.5-7.5 0-4.6 1.5-8.2 4.4-10.7 2.9-2.6 7.4-4.2 13.2-4.8v-5.7H67v5.6c5.5.3 11.1 1.7 16.7 4.1l-5 11.9c-5.8-2.6-11-3.9-15.7-3.9-2.2 0-3.8.3-4.7.8-.9.5-1.4 1.3-1.4 2.4 0 .9.3 1.7 1 2.3.7.6 1.8 1.3 3.4 2 1.6.7 3.8 1.6 6.7 2.6 5.8 2.1 10 4.4 12.5 7 2.5 2.6 3.8 6 3.8 10.1 0 4.7-1.5 8.4-4.4 11.4-3 2.9-7.3 4.7-12.9 5.4v8h-8.6v-7.7z"/></g></svg>