<svg xmlns="http://www.w3.org/2000/svg" version="1" viewBox="0 0 125 125" enable-background="new 0 0 125 125"><style type="text/css" id="style3">.st0{fill:#F36F2E;} .st1{fill:#FFFFFF;}</style><circle id="XMLID_1_" class="st0" cx="62.5" cy="62.5" r="62.1"/><g id="g4257" fill="#fff"><path id="path4259" d="M27.567 52.482l4.276-22.08c.52-2.397 3.427-7.017 9.416-7.188h44.156c5.818.17 8.73 4.79 9.244 7.187l4.45 22.083c2.74.512 5.65 3.25 5.65 6.162V76.96c0 2.735-2.4 4.96-3.6 5.814v13.353c-1.707 1.71-3.593 2.907-5.99 2.907-2.394 0-4.957-1.198-6.5-2.907V83.294l-11.468.854H49.477l-11.467-.854v12.833c-1.542 1.71-4.11 2.907-6.506 2.907s-4.276-1.198-6.16-2.907V82.774c-1.03-.854-3.428-3.08-3.428-5.813V58.646c0-2.91 2.916-5.65 5.65-6.162m66.58 3.938c3.12 0 5.65 2.6 5.65 5.818 0 3.21-2.53 5.818-5.65 5.818-3.115 0-5.65-2.61-5.65-5.818 0-3.216 2.536-5.817 5.65-5.817m-61.96 0c3.12 0 5.65 2.6 5.65 5.818 0 3.21-2.53 5.818-5.65 5.818-3.12 0-5.645-2.61-5.645-5.818 0-3.216 2.528-5.817 5.647-5.817m1.032-12.5l1.197-6.67c1.54-6.85 8.896-7.874 16.426-7.874h24.994c7.53 0 14.89 1.025 16.26 7.874l1.196 6.67c.683 3.938-1.54 5.313-5.817 5.136l-24.134-1.02-24.133 1.02c-4.28.177-6.505-1.198-5.99-5.135m8.896 18.835v2.396h42.277v-2.395L71.216 61.9H55.468l-13.353.854zM63.34 68.57h21.224v3.256h-42.45V68.57H63.34zm-21.226 9.07v-2.563h42.28v2.562l-13.177.685h-15.75l-13.352-.687z" clip-rule="evenodd" fill-rule="evenodd"/></g></svg>