<?xml version="1.0" encoding="utf-8"?>
<!-- Generator: Adobe Illustrator 18.1.1, SVG Export Plug-In . SVG Version: 6.00 Build 0)  -->
<!DOCTYPE svg PUBLIC "-//W3C//DTD SVG 1.1//EN" "http://www.w3.org/Graphics/SVG/1.1/DTD/svg11.dtd" [
	<!ENTITY ns_extend "http://ns.adobe.com/Extensibility/1.0/">
	<!ENTITY ns_ai "http://ns.adobe.com/AdobeIllustrator/10.0/">
	<!ENTITY ns_graphs "http://ns.adobe.com/Graphs/1.0/">
	<!ENTITY ns_vars "http://ns.adobe.com/Variables/1.0/">
	<!ENTITY ns_imrep "http://ns.adobe.com/ImageReplacement/1.0/">
	<!ENTITY ns_sfw "http://ns.adobe.com/SaveForWeb/1.0/">
	<!ENTITY ns_custom "http://ns.adobe.com/GenericCustomNamespace/1.0/">
	<!ENTITY ns_adobe_xpath "http://ns.adobe.com/XPath/1.0/">
]>
<svg version="1.1" id="Layer_1" xmlns:x="&ns_extend;" xmlns:i="&ns_ai;" xmlns:graph="&ns_graphs;"
	 xmlns="http://www.w3.org/2000/svg" xmlns:xlink="http://www.w3.org/1999/xlink" x="0px" y="0px" viewBox="0 0 128 128"
	 enable-background="new 0 0 128 128" xml:space="preserve">
<metadata>
	<sfw  xmlns="&ns_sfw;">
		<slices></slices>
		<sliceSourceBounds  width="127.8" height="127.8" bottomLeftOrigin="true" y="-127.9" x="0.1"></sliceSourceBounds>
	</sfw>
</metadata>
<g>
	<circle fill="#5BB247" cx="64" cy="64" r="63.9"/>
	<g>
		<path fill="#FFFFFF" d="M64,51.2c16.7-14.8,0.1-31.7,0-31.8C63.9,19.4,47.3,36.4,64,51.2z"/>
		<path fill="#FFFFFF" d="M62.9,59.9c-6-21.5-28.5-14-28.6-13.9C34.3,46.1,42.3,68.4,62.9,59.9z"/>
		<path fill="#FFFFFF" d="M65,77.7c20.6,8.5,28.6-13.8,28.6-13.9C93.5,63.7,71.1,56.2,65,77.7z"/>
		<path fill="#FFFFFF" d="M34.3,63.8c0,0.1,8,22.4,28.6,13.9C56.9,56.2,34.4,63.7,34.3,63.8z"/>
		<path fill="#FFFFFF" d="M65,59.9C85.6,68.4,93.6,46.1,93.7,46C93.5,46,71.1,38.4,65,59.9z"/>
		<path fill="#FFFFFF" d="M64,81.9c-1.1,0-2,0.9-2,2v22.8c0,1.1,0.9,2,2,2c1.1,0,2-0.9,2-2V83.9C66,82.8,65.1,81.9,64,81.9z"/>
	</g>
</g>
</svg>
