<?xml version="1.0" encoding="utf-8"?>
<!-- Generator: Adobe Illustrator 18.1.1, SVG Export Plug-In . SVG Version: 6.00 Build 0)  -->
<!DOCTYPE svg PUBLIC "-//W3C//DTD SVG 1.1//EN" "http://www.w3.org/Graphics/SVG/1.1/DTD/svg11.dtd" [
	<!ENTITY ns_extend "http://ns.adobe.com/Extensibility/1.0/">
	<!ENTITY ns_ai "http://ns.adobe.com/AdobeIllustrator/10.0/">
	<!ENTITY ns_graphs "http://ns.adobe.com/Graphs/1.0/">
	<!ENTITY ns_vars "http://ns.adobe.com/Variables/1.0/">
	<!ENTITY ns_imrep "http://ns.adobe.com/ImageReplacement/1.0/">
	<!ENTITY ns_sfw "http://ns.adobe.com/SaveForWeb/1.0/">
	<!ENTITY ns_custom "http://ns.adobe.com/GenericCustomNamespace/1.0/">
	<!ENTITY ns_adobe_xpath "http://ns.adobe.com/XPath/1.0/">
]>
<svg version="1.1" id="Layer_1" xmlns:x="&ns_extend;" xmlns:i="&ns_ai;" xmlns:graph="&ns_graphs;"
	 xmlns="http://www.w3.org/2000/svg" xmlns:xlink="http://www.w3.org/1999/xlink" x="0px" y="0px" viewBox="0 0 128 128"
	 enable-background="new 0 0 128 128" xml:space="preserve">
<metadata>
	<sfw  xmlns="&ns_sfw;">
		<slices></slices>
		<sliceSourceBounds  width="-32766" height="-32766" bottomLeftOrigin="true" y="24970" x="8498"></sliceSourceBounds>
	</sfw>
</metadata>
<g>
	<circle fill="#5BB247" cx="64" cy="64" r="63.9"/>
	<g>
		<path fill="#FFFFFF" d="M64,51.2c16.7-14.8,0.1-31.7,0-31.8C63.9,19.4,47.3,36.4,64,51.2z"/>
		<path fill="#FFFFFF" d="M62.9,59.9c-6-21.5-28.5-14-28.6-13.9C34.3,46.1,42.3,68.4,62.9,59.9z"/>
		<path fill="#FFFFFF" d="M65,77.7c20.6,8.5,28.6-13.8,28.6-13.9C93.5,63.7,71.1,56.2,65,77.7z"/>
		<path fill="#FFFFFF" d="M34.3,63.8c0,0.1,8,22.4,28.6,13.9C56.9,56.2,34.4,63.7,34.3,63.8z"/>
		<path fill="#FFFFFF" d="M65,59.9C85.6,68.4,93.6,46.1,93.7,46C93.5,46,71.1,38.4,65,59.9z"/>
		<path fill="#FFFFFF" d="M64,81.9c-1.1,0-2,0.9-2,2v22.8c0,1.1,0.9,2,2,2c1.1,0,2-0.9,2-2V83.9C66,82.8,65.1,81.9,64,81.9z"/>
	</g>
</g>
<g>
	<circle fill="#1C5477" cx="64" cy="64" r="63.9"/>
	<path fill="#FFFFFF" d="M86.8,32.8H41.1c-5.9,0-10.8,4.9-10.8,10.9V70c0,6,4.8,10.9,10.8,10.9h8.4l0.1,14.3l19.7-14.3h17.5
		c5.9,0,10.8-4.9,10.8-10.9V43.7C97.6,37.7,92.8,32.8,86.8,32.8z M88,66.6H54.4v-4.8H88V66.6z M88,56.9H54.3v-4.8H88V56.9z"/>
</g>
<g>
	<circle fill="#2B78BE" cx="64" cy="64" r="63.9"/>
	<path fill="#FFFFFF" d="M84.9,67.8C76.9,49.1,65,29,65,29C48.5,46.5,42.5,64.6,41.7,69.5C38.1,97.5,63,98.9,63,98.9s1.7,0.2,3.7,0
		C91.6,94.7,86.9,73.4,84.9,67.8z M57.4,66.6c-0.7-0.1-1.3-0.2-1.3-0.2s-8.3-1.8-5.5-11c0.6-1.6,3.6-7.4,10-12.3
		c0,0,2.9,7.4,4.6,14.1C65.6,59.2,66,66.6,57.4,66.6z"/>
</g>
<g>
	<circle fill="#CB2027" cx="64" cy="64" r="63.9"/>
	<g>
		<rect x="34.6" y="55.2" fill="#FFFFFF" width="58.7" height="17.7"/>
		<rect x="55.1" y="34.6" fill="#FFFFFF" width="17.7" height="58.7"/>
	</g>
</g>
</svg>
