<svg xmlns="http://www.w3.org/2000/svg" version="1" viewBox="0 0 125 125"><style id="style3">.st0{fill:#caf2fe;} .st1{fill:#FFFFFF;} .st2{fill-rule:evenodd;clip-rule:evenodd;fill:#caf2fe;}</style><path class="st0" d="M-243.3 360.6c-.9.4-2.1 1-3 1.4-1.4.6-3.3 1.4-4.8 1.8-4.3 1.4-6.8 1.9-9.3 2.4-2.4.4-5.4.7-5.8.7-.9 0-1.8.1-2.7.1-2.8.1-5.7-.1-8.6-.4-3.7-.4-5.8-.9-8.3-1.5-2.1-.5-5.6-1.7-6.5-2.1-1.2-.5-2.8-1.1-3.9-1.7-1.5-.7-3.4-1.7-4.8-2.5-4.5-2.6-7.8-5.4-7.8-5.4-3.7-3.3-4.5-3.9-6.8-6.5-2.7-3-4.6-5.7-5.7-7.5-.6-1-2.6-4.1-4.5-8.4-1.2-2.6-2.4-6.3-3.2-9-1.3-4.6-2.2-11.8-2-16.1.2-5.5.4-6.7.9-9.7.8-4.7 2-8 2.4-9.3 1.4-3.9 2.7-6.7 3.8-8.7.7-1.2 1.6-2.8 2.3-4 .8-1.2 1.9-2.7 2.7-3.9.8-1.1 2-2.5 2.9-3.6s2.3-2.4 3.3-3.5 2.5-2.4 3.7-3.3c2-1.6 4.7-3.7 7-5 1.3-.7 3-1.8 4.3-2.4 1.8-.9 4.2-1.9 6-2.6 1.1-.4 2.6-.9 3.8-1.3 2-.6 2.5-.7 5.1-1.3.6-.1 3.9-.8 7.9-1.1 2.7-.2 4.6-.2 6.1-.1 4.8.2 9.2.9 11.6 1.4 4 .9 6.5 1.8 9.6 3 2.4 1 5.5 2.6 7.7 3.8 1.5.8 3.3 2 4.7 3 3.8 2.9 5.4 4.1 7.3 6.2 3.8 4 4.1 4.3 6.2 7.2 1.3 1.8 3.1 4.3 5 8.1.7 1.3 1.5 3 2 4.4 1 2.7 2.2 6.3 3 9.1 0 .1 1 3.7 1.5 9.8.4 4.3.5 13.1-2.8 23-1.7 5.1-3.7 8.8-3.7 8.9-1.4 2.4-3.3 5.6-4.8 7.9-.8 1.2-2 2.7-2.9 3.7-.9 1.1-2.2 2.6-3.3 3.6-2 1.8-4.7 4.2-6.8 5.9-1.1.9-2.7 1.9-3.9 2.7-1.4.9-3.4 2-4.9 2.8-6.9 3.5-14.7 5.5-23 5.8 8.4-.3 16.1-2.3 23-5.8z" id="path5"/><path class="st1" d="M-313.8 301.3c-.3 0-.4.3-.4.4 0 .3.3.5.5.3.3-.2.3-.7-.1-.7z" id="path7"/><path class="st1" d="M-321 273.4l1-1.5c-.3.5-.6.9-.9 1.3-.1.1-.1.2-.1.2 0 .1-.1.1-.1.1l-.4.6-.5.8c-.1.1-.1.2-.2.3 0-.1.5-.8.6-.9l.6-.9z" id="path9"/><path class="st1" d="M-306.7 322.2c-.1.1-.2.1-.2.4-.1.5 0 .9-.1 1.4-.1.4-.3 1.4-.6 1.5 0 0-.8.4-.1 1.6.6 1 .6 1 .7 1.4s.1.9.2 1.3c0 0 1.3 2.8 1.8 3.1 0 0 1 .4 1-.7 0-.3-1.3-7.2-1.3-7.5-.1-.6-.8-2.5-1.4-2.5z" id="path11"/><path class="st1" d="M-324.5 282.6c.1.2.4-.5.5-.8l.2-.8c-.2.2-.8 1.4-.7 1.6z" id="path13"/><path class="st1" d="M-325.3 282.7l.1-.3c-.1 0-.3.6-.3.6s.1 0 .2-.3z" id="path15"/><path class="st1" d="M-323.8 283.6v.5c.1.1.3-.1.4-.4.1-.2.2-.6.1-.8 0 0 0-.1-.1-.1h-.4c-.2.1-.2.3-.3.4v.2c.2 0 .2.1.3.2z" id="path17"/><path class="st1" d="M-242.5 257.7c0-.1.1-.3.1-.5-1-1.1-1-1.1-5.1-2.5v.5c-4.3-.7-8.7-1.1-13-2.1.2-.2.5-.3.8-.4-1.1-.9-2.4-.1-3.6-.6.1.1.2.3.2.5 1.9.3 1.9.3 1.8 1.2-1.2.3-2.5-.2-3.5.7-.8-.1-1.1-1.2-2-1.3-.2 0-.2 0-6.4.4 0-.3.1-.6.2-.9-1.2-.5-2.8-.1-3.3 0-.1-.1-.1-.1-1.6-.3-1.6 1.2-2.3.7-2.6.5-2.3.4-4.3 1.8-6.7 2.1 0 .1.1.3.1.5.1.1.3.1.4.2 0 .1.1.3.1.5-.1.1-.2.3-.2.4-.1 0-.3-.1-.4-.1v-.5c-.6-.2-.6-.2-2.7.5 0-.3.1-.6.2-.9-.6.4-.6.4-1.5 2 1.4-.6 1.4-.6 1.8-.7 0 .6-.2.8-.8 1l-.3-.3c-1.2.3-1.9 1.4-3 1.8.6-.8 2.6-3.2 2.6-3.2 0-.3-.2-.6-.4-.7-1 .4-2.4 1.6-2.4 1.6 0 .3.1.6.3.8l-.3.3c-2.4-.2-2.4-.2-3.5.5-.5-.1-1 0-1.5.2.1-.1.2-.3.2-.5l-.3.1s0-.1-.1-.1c.1-.2.3-.3.5-.4.4.4 1.5-.4 1.4-.8h-.1c0-.6 3.1-2 4.3-1.9.5.1 1.7-.9 1.7-.9.1-.1.1-.1.1-.2-.1 0-.1-.1-.2 0-.4.1-.6.3-.9.4-.4.1-.9.1-1.3.2l-1.7.5-3.2 1.8s-.1 0-.1.1h-.3c-.3 0-.5.3-.8.2 0-.2 0-.3 1-1 .5-.3.5-.4.7-.5-.1 0-.1 0-1 .5.2-.9 1.5-.8 1.6-1.8-.1 0-.1-.1-.2-.1v-.2c-1.3 0-1.6.6-1.7.9v.1h.2c-.3.1-.4.1-.5.1v-.1c.1-.1.2-.2.2-.3h-.1c.1-.2.3-.3.4-.4l-.1-.1h-.1s0-.1.1-.1c-1.6.7-2.9 1.8-4.4 2.5.3-.5.9-.7 1.3-1.1-.2 0-.3 0-.8.4 0 0-4.1 3.2-6.1 4.8-1.7 1.2-3.8 2.9-5.6 4.7-.1 0-.3.2-.6.5s-.6.7-.6.7v.1c-.6.7-1.1 1.4-1.6 2.1.4-.1.4-.1 1.1-.9-.2.3-.2.3-1.3 2.1 2.5-1.4 3.6-4.3 5.7-6.2h.1c-.2.2-.4.4-.5.6l.1.1c0 .3-.3.5-.3.8l.1.1c-.2.3-.4.5-.6.8.2-.1.4-.2.7-.3-.2.2-.4.5-.6.8-.2.1-.3.2-.5.3-.2 1.6-1.9 1.9-2.6 3-.6 0-.6 0-1.7.7-.1.1-.1.1-.2.1h-.1l-.2.1c.3-.6.3-.6.9-1.5 0 0-1.5 1.3-3.5 3.8.3-.5.6-1.1.9-1.6.5-.8.5-.8 1.2-1.6.3-.4.5-.6.5-.7h-.1l.1-.1c-.2.2-.4.5-.6.8l-.8 1.1c-.4.5-.6.8-.6.9l-1.8 2.9.1-.1c-.3.4-.3.5-.3.6 0-.1.1-.1.1-.2.2-.4.3-.4.3-.4-2 2.8-4.2 6.8-5.7 12 1.7-3.9 1.7-3.9 4.6-7.9.1 1.2 0 4 0 4 1-1.7.5-3.8 1.3-5.5.7 1.5.3 2.9-.6 6.6 1.6-1.1 1.5-3.2 2.9-4.5-.1.8-.4 1.6-.6 2.4.2.2.4.6.5.8 1 .2 2.5-.8 2.6-.8v.7c-.1.2-.2.4-.4.7 0 .1.1.1.1.2-.5 1.1-1.7 1.9-2.3 3 0 0-.1 0-.1-.1-.1.1-.1.1-2 2.3.2-.8.8-1.4 1.1-2.2-.2-.1-.2-.1-2.2-.1-.4.8-.7 1.7-1.2 2.4h-.3c-1.4-1.9-1.4-1.9-1.4-2.2-.1-1 .9-1.7 1-2.6l-.2-.2c-2 1.8-4 3.8-5.4 13.1 0 .2-.1.4-.1.6-.1.5-.1 1-.2 1.5 0 .3-.1.6-.1.9 0 .4-.1.7-.1 1.1-.1.6-.1 1.2-.1 1.8 0-.5.1-.9.1-1.4-.1 2.1-.2 4.7-.2 6.9 0-1.7 0-3.7.1-5.5-.2 3.1-.1 5.4-.1 6.8.4 3.9.6 4.5.9 5.7.1-3.2 1-3.9 1-3.9.2.2.2.2.8 2.1.1 0 .2.1.3.1.1-.2.2-.5.2-.8.5.1.5.1 1 4.5 0 .4 1.3 3.6 2.6 6.9-.3-.4-.5-1-.9-1.3-.3.5-.5 1-.7 1.4-.1 0-.3-.1-.5-.1-.3 2.2-.3 2.2.1 3.4 3.8 10.6 10.8 17.5 16 21.5.1-.1.3-.2.4-.3-.2-.3-.5-.7-.6-1.1 2.4 2.6 2.4 2.6 5.8 5.3.1 0 .3-.1.5-.1 2.4 2.7 6.8 2.9 8 6.9 1 .3 1 .3 1.4.1-.3-.1-.7-.4-.9-.6.3.2.7.4 1 .4l-8.3-8.5c-2.4-1.7-5.5-6.5-7.2-9.3.2-.3.4-.6.4-1-.2-2.3-.2-2.5-1.5-5 .3-1 .7-2.1.5-3.1-.3-2.3 0-4.7-.3-7-.3-2.5-2.6-4.1-2.8-6.6 0-.4 0-.4.4-2.4.2-.1.4-.2.5-.3.6 1 .6 1 1 1.3 2.7-4.8 3.2-5.2 3.6-5.5.5.1.5.1 3.4-2.5.2 0 .4.1.6.1.2.3.5.6.8.8.2-.2.5-.6.7-.8 1.3.2 1.3.2 1.6.2l5.6-8.5c.2.6.3 1 .4 1.2-.1.1-.2.3-.3.4.1.2.1.4.2.6.8-.1 1.1-.8 1.7-1.2 0 1.1.2 2.3.5 2.5.5.5.9-1 .9-2.2 0-.2 0-.5-.6-1.7 0-.1 0-.1-.1-.1.2-.3.5-.6.8-.9.3 0 .7 0 .9-.2-.1-.3-.3-.8-.5-1.1 0-.1 2.1-5.2 3.9-5.4 0 0 1.5-.4 1.7-1.2.2-.6.4-1.2.7-1.8 1.3 3.8 1.3 4 1.4 5.5.1 0 .3 0 .5-.1 1.1-2.7 1.1-2.7 1.8-3 1.5 1.6.4 4 1.6 5.7.8-.8.4-1.9.8-2.8 1.8 1 2 1.4 3.6 5.5 4.1-6.1 4.4-6.5 1-9.7-.6-.6-2.2-2.1.7-3.8.1.1.3.1.5.2.4 1.2-1.2 3.1.4 3.6.4-.3.6-.5 1-1.7-1.1-1.1-.2-2.1.2-2.2 10.7-3.2 6.5-9.1 5.1-11.1 1.6-1.1 1.6-1.1 1.7-1.4-.1-.1-.1-.3-.2-.4-1-.4-2.2 0-3-.9.1-.2.2-.4.2-.5.3-.1.6-.3.8-.5 0 .1 0 .1.1.2-.1.1-.3.2-.5.2.4.7.4.7 1.2 1.1.3-.1.6-.4.7-.7 2.6 1.2 2.6 1.2 3 1 .2.1.4.2.6.2.1.3-.1.7-.4 1.5 1.5 1.6 2.3-.5 2.3-.9.1-1.3-1.1-1.8-1.5-2.8.3-.2.7-.4.9-.6 0-.2 0-.4.2-.7l.2.2c.1 0 .3-.2.4-.3.1-.1 0-.2 0-.2l-.3-.1c.2-.2.4-.5.7-.8 5 .6 4.2-6.1 4.1-6.4-.7-.9-1.7-.4-2.6-.8-.1-.1-.1-.3-.2-.5-.2.1-.6.3-.8.3v-.5c2-1.7 2-1.7 8.4-2.2.9-1.5.9-1.5 1-1.7.1-.1.3-.1.4-.2.4.3.7.7 1 .9.3-.1.6-.4.8-.6-.3 1.1-1.7 1.4-1.6 2.7.1 1.8 1.7 2.9 2.1 4.6.4-1.7 1.6-3.6 1.6-3.6-.4-.9-1.1-2.5-1.1-2.5l4.7-1.2c.1-.5.1-.5-.8-1.1zm-65.3 21.1v-.4.4zm1.8-5.5s-.1.1 0 0c-.1.1-.3.2-.5.3.2-.2.3-.4.5-.7v.4zm-2.8-.2c-.1.1-.3.2-.6.3l.2-.2c.2-.1.3-.1.4-.1zm-2.4-9.6c.2-.1.3-.3.5-.4.1-.1.3-.2.5-.2-.3.3-.7.5-1.1.8 0 0 0-.1.1-.2zm-7.4 16v-.1c.1-.3.3-.5.4-.8s.1-.4.1-.4c0-.1 0-.2.3-.7.1-.2 1.8-2.5 1.8-2.5.2-.3.4-.4.6-.4.1.1.1.1-.1 1.4v.1c.2 0 .9-.7 1.3-1.4.2-.4.7-.6 1-.7 0 .1 0 .1-.7.7-.2.2 0 .4.1.5.1 0 .1.1.2.2-.6.4-1.4 1.3-2.2 2.3-.1 0-.2 0-.4.1-.4.2-.7.4-.8.6-.1.1-.1.2-.3.3-.2.1-.3.1-.7.2-.2.1-.3.4-.6.6zm-.2 34.5l-.2-.2c.1-.1.3-.2.4-.1-.1.1-.1.2-.2.3zm-.8-24.8c0-.1-.1-.2-.1-.3.1.1.1.2.1.3.1 0 .1 0 0 0zm14.4 18.5c-.3-.2-.6-.4-.8-.6-.3 0-.7-.1-.9-.2-.1-.6 0-1.2-.2-1.8-.6-.3-1.3-.4-2-.3 0 0 .2 3.3.5 5.2-.3 0-.8.1-1.1.2-.3-.2-.7-.4-1-.5-2 1.9.1 4.4-1 6.4-.8.1-1.2-.6-1.9-.8-.2.2-.4.6-.5.9h-.5c-.2-.2-.3-.4-.5-.6.3-1.7 1-3.2 1.3-3.8 1.2-2.5 2.1-4.4 2.4-7.5.5 0 .5 0 .5-.1.1-.1.1-.3.1-.4-.2-.1-.4-.2-.5-.3 0-.4.1-.8.1-1.3 0-.2-.1-.5-.1-.6-1.6.3-2 2.4-3.8 2.3l-3.4-7.1c-.7-2.4-.1-4.9-.5-7.4-.1 0-.2.1-.3.2 0 0-.1 0-.1-.1.4-.1.8-.4 1.2-.5 1 4.2 1.4 8.5 2.9 12.5.8.1 1.7-.4 2.7-1.1 0 .3.1.7.2 1 1-.6 1.3-1.7 1.6-2.7.3-.3.6-.7 1-1.1h.1c.1-.1.2-.3.3-.5 0 0 0-.1.1-.1.7 0 1.3.3 2 .4.1.3.4.6.6.9 1.7-1.1 1.7-1.1 4.1 1.4-.6 7-.6 7-2.6 8zm11.7-7.3c.2-.7.4-1.6.4-2.5l1.2-1.8c.2-.1.4-.1.5-.2.1.1.2.3.3.4-.6 1.6-1.5 2.8-2.4 4.1zm29.2-27.5c.1-.1.2-.2.3-.2.4.3.5.4.6.9-.4-.3-.7-.5-.9-.7z" id="path19"/><path class="st1" d="M-277.5 255c0-.1 0-.1 0 0-.1-.1-.1-.1 0 0z" id="path21"/><path class="st1" d="M-254.7 265.8s-.3-.4-.5-.5c-1 0-.9.3-.6.6.5.7.7 1.1.9 1.8.2.6.6 1.7.8 1.9.1.1 1.2 1 .8 0-.2-.4-.5-.6-.5-1 0-.2.2-.4.3-.5 0 0 .1 0 .1-.1 0 0-.2-.8-1.2-1.6l-.2-.2s.1 0 .1-.1c0 0 .1-.2 0-.3z" id="path23"/><path class="st1" d="M-251.6 271.3c-.2-.1-.2-.1-1.2-.2-.1 0-.2-.1-.4-.2s-.3-.2-.5-.3h-.1c-.3 0-.4.5-.3.8v.2c-.2.2-.5.3-.7.4l-.1.1s-.1.2 0 .2c0 0 .3.4.9.4 0 0 1.3-.2 1.6-.3 1.3-.3 1.3-.3 1.3-.4 0 0 .2-.4-.5-.7z" id="path27"/><path class="st1" d="M-259.2 276.9c-.3.1-.4.2-.4.3-.1.2.3 1.1.6 1.5.7.9 1.4.3 1.3-.6 0-.1 0-.3.1-.3.4-.2.7.3 1.2.2h.1c.1-.1.4-.2.5-1.2 0 0 0 .1.1.2.2.3.7.5 1.1.3.1-.1.3-.3.3-.4v-.1c.3 0 .7-.2.8-.4v-.1c.9-.4 1.3-.7 1.5-.9.1-.1.1-.1.1-.2 0-.4-.2-.8-.2-1.3-.1-.5 0-.5.1-.6s.2-.1.2-.2c.1-.2-1-2-1.5-2.1-.4.1-.3.5-.3 1 .1.6.1.8.1 1.2 0 0-.2 1.1-.4 1.3-.2.3-.6.3-.9.4-.4.2-.6.6-1 .7-.1 0-.1 0-1.5-.1h-.6c-.1.1-.2.2-.2.3-.1-.1-.2-.3-.3-.4-.2-.3-.2-.4-.4-.4-.1 0-.2 0 0 .5s.3.7.3.8c0 0 0 .1-.1.1-.2.4-.2.4-.6.5z" id="path31"/><path class="st1" d="M-264.3 284.5c-.8.1-1.3 1.9-.8 2.3.4.4 1.2-.8 1.2-1.8-.1-.5-.3-.5-.4-.5z" id="path35"/><path class="st1" d="M-235.9 336.7c-.2-.3-.2-.3 0-1.2.1-.6.1-.7 0-.8-.1 0-.2.2-.2.2-.2.5-.2 1-.3 1.5-.2.7-.3.7-.6.9-.2.2-.4.3-.4.4s0 .2.1.2c.1.1.3.1.5.1 0 .1 0 .1-.3.4-.2.3-.4.5-.3.6.1.3.6-.2.8-.6.4-.5.7-.8.9-1 .1-.1.2-.1.2-.2.1-.1.2-.4.2-.6-.1-.1-.5.3-.6.1z" id="path37"/><path class="st1" d="M-238.2 338.7c-.2.1-.4.2-.5.3l-.1.1-.3.3c-.3.3-.6.5-1.1.9-.7.5-1.2.8-1.6 1.1-.3.3-.6.6-.5.9.1.2.7.4.9.3.4-.3.7-.7 1.1-1 .4-.4.9-.7 1.3-1 .1-.1.2-.1.3-.2.2-.1.6-.5.9-1.1.1-.1 0-.6-.1-.7-.2-.1-.2 0-.3.1z" id="path39"/><path class="st1" d="M-248.8 338.4c-.1 0-.2.1-.6.3-.4.3-.5.3-.6.3l-.6-.3c-.1.1-.2.2-.2.4v.1c0 .2.2.3.2.4v.4c-.1.1-.1.2 0 .3.1.2.7 0 .8-.1.3-.3.9-1.2 1.1-1.6.1-.2 0-.2-.1-.2z" id="path41"/><path class="st1" d="M-242.8 324.2c-.3-1.1-1.7-.3-2.2-1.1-.1-.2-.2-1-.2-1.5 0-.6-.1-1.1-.2-1.5 0-.1-.1-.2-.1-.3-.3-.7-.9-1.3-1.2-2-.3-.6-.3-1.3-.6-1.9 0-.1-.1-.2-.1-.3-.1 0-.8 1.9-.5 3 .1.3.2.6-.1 1.3-.7 2.3-.7 2.3-3.5.1-1-.8.6-1.8.2-2.8 0-.1-.2-.2-.3-.2-.6-.2-1.2.3-1.8.2-.4-.1-.4-.8-.9-.7-.2.1-.2.3-.3 1.5-.2-.3-.8-1.1-1.1-1.3-.2.8-.6 1.5-.8 2.3-.1.3-.4 1.3-1.3.1s-1.6.2-1.9 1.1c-.3.7-.3.7-1.6.5-1-.2-1.1-.2-.8 2.5v.6c-1.1.5-2 .8-2.6.7-.4 0-.4 0-.6.1-.4.2-2 1.8-2.1 1.9-.4.5-.8 1.4-.8 1.7.1.7 1.1.7 1.3 1.4-.1.1-.3.3-.2 1l1.1 2.5c0 .1 0 .1.4.5.8 1-1.1 2-.1 3 .3.3.7.8 1.9 0 .4-.2.6-.7 1.2-.8.7-.1 1.3.4 2 .4.2-1.3.5-2.1.8-2.2.1-.1.4-.3 1.2-.1.9.2 1.3-.6 2-.8h.2c.3-.1.3-.1.6 0 .2.4.2.4 1.3.9.7.3.7.6.4 1.4 0 .1-.1.3-.1.4.8.9 1.3-1 2.1-1.4.2.5-.3.9 0 1.4.2-.1.2-.3.4-.4v.3c.1.4.4.5.6.9.2.5-.3 1-.1 1.5.7.2.7.2 1.2 1h.2c1-.8 1-.8 1.5-.2l2.2-1.1s.1-.1.1-.2c.5-.6.7-1.4 1.2-2 .8-1.1 2.1-1.7 2.7-2.9.1-.2.3-.6.3-2.1-.3-.8-1-6.4-1-6.4z" id="path43"/><path class="st1" d="M-228.8 320.4c-.3 0-1 1-1.3 1.4.4.3 1.2-.7 1.3-1.1.1-.3 0-.3 0-.3z" id="path45"/><path class="st1" d="M-236.5 325c.2.4.5.2.6-.2.3-.9-.9-1.1-.9-1.1-.1 0-.1 0-.1.2 0 0 .2.9.3.9.1 0 .1.1.1.2z" id="path47"/><path class="st1" d="M-274 311.1c0-.4.3-.7.3-1.1.1-.4-.2-.8-.5-.7 0 0-.2 0-.4-.1-.4-.3-.7-.8-1.2-1.2-.6-.5-1.2-.9-1.8-1.3l-1.5-1.5-.3-.3c-2.1-1.7-2.1-1.7-2.8-1.6-.1 0-.1 0-.3.2.1.3.1.3 1.8 2 1.8 1.7 1.8 2.1 2 2.9 0 0 .6 3.1 1.3 3.4.7.3 1.4.4 2.1.7.3.1.3.1.6.6.1.2.5.5.6 0 .3-.7.1-1.4.1-2z" id="path49"/><path class="st1" d="M-280.1 300.8c.3.2.5.3.8.8.5 1.1.9 2.3 1.5 3.4 0 .1.1.2.1.2.2.3 2.3 2.5 2.5 1.3 0-.2 0-.2-.6-1.2-.4-.6-.5-1.2-.8-1.8-.2-.5-.5-.9-.7-1.3 0 0-1.4-1.9-2.9-3.4-.6.4-.2 1.5-.2 1.5 0 .3.1.4.3.5z" id="path51"/><path class="st1" d="M-267.3 314.8c.1-.3-.4-.9-.7-1-.2-.1-.2-.1-.4-.1-.1 0-.8-.1-1.8-.3-.5.3-.7.4-.7.5-.1-.1-.2-.2-.4-.3-.4-.2-.9 0-1.3-.1s-.4-.7-.8-.7c-.4.1-.5.6-.5.8 0 .1.1.8 1 1 .6.1 1.7-.1 2-.4v.1s.5.7 1.1.8h.2c.2 0 .5-.1.7-.1.5 0 .9.1 1.4.1 0-.2.2-.2.2-.3z" id="path53"/><path class="st1" d="M-263.9 315.9c.3.3.8.3.9-.3 0-.4-.2-.6-.5-.6-.6.1-.7.6-.4.9z" id="path55"/><path class="st1" d="M-260.2 315.9c.2-.1.5-.3.8-.6h.1c.2 0 .5-.1.7-.3 0 0 .2-.1.2-.3.1-.4-.4-.9-1-.9-.2 0-.3.1-.4.2l-.8 1.2c-.3.5-.1.7-.1.8.1.1.4 0 .5-.1z" id="path57"/><path class="st1" d="M-262.5 310.1c.1 1.3 1 1.5 1.6 1.5 0 0-.1-1.8-.8-2.2-.6-.4-.8-.6-.8-.7.1-.1.1-.1.4-.1.7.1 1.1-.2 1.1-.5.1-.7-.9-.6-1.7-.4-.1 0-.4.1-1-.2-.1 0-.2.1-.2.2-.3.4-.1.9-.2 1.3-.1.3-.2.6-.3 1v.1c0 .1 0 .3.1.3l.2.2c.3.1.6-.2.9-.6.2-.2.4-.4.6-.4 0 0 .1.4.1.5z" id="path61"/><path class="st1" d="M-260 305.7v-.3h-.1c-.4.1-2 .5-2.2.6-.1 0-.3.1-1.4-.1-.1.2-.3.4-.1.7 0 .1.2.3.6.3.1 0 .1 0 1.1-.2.5-.1 1-.1 1.5-.3.5 0 .6-.7.6-.7z" id="path63"/><path class="st1" d="M-258 307.3c.5.4 1.1-.9 1.1-2.1 0-.6-.2-.6-.3-.6-.6 0-1.3 2.2-.8 2.7z" id="path65"/><path class="st1" d="M-268.3 302.9c-.4.4-.4 1-.8 1.4 0 0-.1.1-.3.2-.9.5-.9.5-1 .6-.1.2-.2.5-.2.7-.1.2-.1.2-.1.3-.4.1-.6-.3-1-.4-.8-.2.1 2.6.6 3.4.4.6 1.1 1.3 1.6 1.4l2.3.2c.7 0 .9-.2.9-.2.1-.1.1-.1.1-.2v-.4c0-.3-.1-1 0-1.6.2-.8 1.2-1.2 1.2-2.1.1-.9-.9-1.4-.9-2.3 0-.7.9-.7 1-1.3v-.2c-.2 0-.5.3-.7.1-.3-.2-.5-1-.5-1-.1-.6-.1-.6-.3-.6 0 0-1.2.3-.7 1.5.1.2.1.3 0 .4-.3.1-.8-.2-1.2.1z" id="path67"/><path class="st1" d="M-265.1 291.9c0 .1-.1.1-.1.2v.2c-.1.6.7 1.3 1.2 1.7.5.4.6.6.5.8-.1.1-.2.3-.3.4-1 1.1-1 1.5-.9 1.7s1-.8 1.5-1.4c.6-.8.6-.8.7-.9.3-.2.7 0 1-.3.1-.1.1-.1.3-.5-.5-.1-.9-.3-1.4-.3-.2 0-.5.1-.7.1-.4.1-.4-1 .4-1.8.9-.8-.3-1.9-.8-1.9-.2.1-.2.1-.2.5 0 .3 0 .5-.1.7-.3.3-.8.4-1.1.8z" id="path69"/><path class="st1" d="M-262.5 296.3c-.6 0-.5 1.2-.5 1.2.1.3.2.3.2.3s1.7.1 1.8-.1c.1-.1-.7-1-.7-1-.4-.3-.6-.3-.8-.4z" id="path71"/><path class="st1" d="M-260.7 295.1c-.3.1-.7 1.1-.3 1.4.3.3 1.2.1 1.2-.6 0-.1-.2-.7-.9-.8z" id="path73"/><path class="st1" d="M-260.3 298c-.4.7-.6 1-.8 1.1-.1.1-.3 0-.4-.1-.3-.2-.4-.2-.4-.2-.6-.1-1.4.8-1.2 1.2 0 .1.2.1.3.1h.9c.4 0 .5.1.5.2.2.2.3.5.5.7.4.5 1.7-.3 1.7-1.4.1-.1.1-.6-1.1-1.6z" id="path75"/><path class="st1" d="M-250.4 313.7c.2.1.2.1 1.1 0 1.1-.1.6 1.6 1.7 1.6.2 0 .2 0 1.2-1.6 0 0 1.1-1.7 1.8.4.4 1.3 2.2 2.2 2.4 1.8.1-.1 0-1.6-.6-2.1-.7-.5-.7-.7-1.2-2.2-.2-.5-.7-.5-1-.9-.3-.3-.4-.8-.7-1.1-.1-.1-.1-.2-.2-.2 0 0-2.7-1.5-2.9-1.6s-2.7-.8-3.1.1c-.2-.1-.3-.3-.5-.4-.5-.3-1.2.1-1.6-.4-.5-.6-.5-.6-.6-.6-.5.1-1 .9-1.1 1.1.1.1.2.2 1.2.3.4.1.7.1.8.3.1.1-.1.4-.2.5-.6 1-.6 1.3-.5 1.4s.3.1.9 0c.5-.1.7-.1.7-.1.2.1.1.4.3.5.5.2 1.1.1 1.6.4.1.1.3.2.5.3.1 0 1.2 1.3 1.1 1.8-.5 0-1.1.2-1.1.7z" id="path77"/><path class="st2" d="M62.6 1.3c34.1 0 61.1 26.9 61.1 61.1 0 34.1-26.9 61.1-61.1 61.1S1.5 96.5 1.5 62.4s27-61.1 61.1-61.1zM29 59.7c.4-7.7 2.5-17.4 6.1-27.1-5.4-2.3-10.2-4.8-14-7.5-8.3 9.1-13.3 21.1-13.9 34.6H29zM7.2 65.1c.5 13.5 5.6 25.5 13.8 34.7 3.8-2.7 8.6-5.2 14-7.5-3.8-9.7-5.9-19.6-6.1-27.1H7.2zm39.9-56c-8.4 2.2-16 6.5-22.3 12.2 3.2 2.3 7.4 4.7 12 6.6 2.8-6.8 6.4-13.5 10.3-18.8zm-22.2 94.5c6.3 5.8 13.8 10.1 22.3 12-4.1-5.6-7.6-12-10.1-18.9-4.7 2-8.8 4.3-12.2 6.9zm35-64.2c-6.1-.4-13.1-2.2-19.9-5-3.2 8.4-5.2 16.9-5.6 25.3h25.5V39.4zM34.4 65.1c.4 8.1 2.3 16.7 5.6 25.3 6.8-2.9 13.8-4.7 19.9-5V65.1H34.4zM59.9 6.9c-1.8 0-3.6.2-5.6.5-4.8 6.7-9.3 14.2-12.8 22.5 5.9 2.2 12.4 3.6 18.3 4v-27zm0 84.1c-5.7.4-12 1.6-18.1 3.8 3.2 8.1 7.5 16 12.6 22.6 2 .4 3.8.5 5.6.5V91zm5.4-57.2c5.9-.4 12.4-1.8 18.3-4-3.4-8.3-7.9-15.8-12.7-22.5-2-.4-3.8-.5-5.6-.5v27zm0 25.9h25.5c-.4-8.4-2.3-16.9-5.6-25.3-6.8 2.9-13.8 4.7-19.9 5v20.3zm0 5.4v20.3c6.1.4 13.1 2.2 19.9 5 3.2-8.6 5.2-17.2 5.6-25.3H65.3zm0 52.8c1.8 0 3.6-.2 5.6-.5 5-6.6 9.3-14.6 12.6-22.6-6.2-2.2-12.5-3.5-18.2-3.8v26.9zm35-96.6C94 15.5 86.5 11.2 78 9.1c4 5.4 7.5 12 10.2 18.9 4.7-2.1 8.9-4.4 12.1-6.7zM78 115.6c8.4-2 16-6.3 22.3-12-3.4-2.5-7.5-4.9-12.2-6.8-2.5 6.8-5.9 13.2-10.1 18.8zm39.9-55.9c-.5-13.5-5.6-25.5-13.8-34.7-3.8 2.7-8.6 5.2-14 7.5 3.6 9.7 5.7 19.4 6.1 27.1h21.7zm-21.7 5.4c-.2 7.5-2.3 17.4-6.1 27.1 5.4 2.3 10.2 4.8 14 7.5 8.3-9.2 13.3-21.2 13.8-34.7H96.2z" id="path79" fill="#caf2fe"/></svg>