<svg xmlns="http://www.w3.org/2000/svg" viewBox="0 0 48 48"><style id="style3">.st0{fill:#caf2fe;}</style><g id="g5" fill="#caf2fe"><g id="g7"><path id="path9" d="M24.6 27.6c-.3.2-.9.2-1.2 0L.3 15.4c-.3-.2-.3-.5 0-.7L23.4 2.5c.3-.2.9-.2 1.2 0l23.1 12.2c.3.2.3.5 0 .7L24.6 27.6z" class="st0"/></g><g id="g11"><path id="path13" d="M43.6 21.5l-17.1 9c-.7.4-1.6.6-2.5.6-.9 0-1.9-.2-2.5-.6l-17.1-9-4.1 2.2c-.3.2-.3.5 0 .6l23.1 12.2c.3.2.9.2 1.2 0l23.1-12.2c.3-.2.3-.5 0-.6l-4.1-2.2z" class="st0"/></g><g id="g15"><path id="path17" d="M43.6 30.4l-17.1 9c-.6.4-1.6.6-2.5.6-.9 0-1.9-.2-2.5-.6l-17.1-9-4.1 2.2c-.3.2-.3.5 0 .7l23.1 12.2c.3.2.9.2 1.2 0l23.1-12.2c.3-.2.3-.5 0-.7l-4.1-2.2z" class="st0"/></g></g></svg>