<svg xmlns="http://www.w3.org/2000/svg" viewBox="0 0 128 128"><circle fill="#F36F2D" cx="64" cy="64" r="63.9" stroke="#fff" stroke-width="6"/><path fill="#FFF" d="M94.3 59.3l-2.9-19.9s-.5-11.3-26.6-12.7H63c-26 1.4-26.5 12.8-26.5 12.8l-2.9 19.9v32.4h5.1c-.1.3-.1.6-.1.9v4.2c0 2.4 2 4.4 4.4 4.4 2.4 0 4.4-2 4.4-4.4v-4.2c0-.3 0-.6-.1-.9h33.4c-.1.3-.1.6-.1.9v4.2c0 2.4 2 4.4 4.4 4.4 2.4 0 4.4-2 4.4-4.4v-4.2c0-.3 0-.6-.1-.9h5.1V59.3zM52.1 31.8h23.6c.6 0 1 .5 1 1 0 .6-.4 1-1 1H52.1c-.6 0-1-.4-1-1 0-.5.5-1 1-1zM43 82.2c-2.4 0-4.3-1.9-4.3-4.3s1.9-4.3 4.3-4.3 4.3 1.9 4.3 4.3c0 2.3-1.9 4.3-4.3 4.3zm21-19.4h-.9l-21.7.1s-2.6.5-2.4-2.8c.6-6.4 2.2-17.9 2.2-17.9s0-2.1 3-2.1h39.5c3 0 3 2.1 3 2.1S88.4 53.6 89 60c.2 3.3-2.4 2.8-2.4 2.8l-21.7-.1-.9.1zm21 19.4c-2.4 0-4.3-1.9-4.3-4.3s1.9-4.3 4.3-4.3 4.3 1.9 4.3 4.3c0 2.3-2 4.3-4.3 4.3z"/></svg>