<svg version="1" id="Layer_1" xmlns="http://www.w3.org/2000/svg" viewBox="0 0 125 125"><style>.st0{fill:#2AAFBC;} .st1{fill:#FFFFFF;}</style><circle id="XMLID_1_" class="st0" cx="62.7" cy="62.5" r="62.1"/><g id="XMLID_8_"><g id="XMLID_17_"><path id="XMLID_6_" class="st1" d="M72.1 39.5c-1.5-1.1-5.3-1.9-9.4-1.9-4.1 0-7.9.8-9.4 1.9l-1.3 1c.6 5.5 5.2 9.7 10.8 9.7 5.6 0 10.2-4.2 10.8-9.7l-1.5-1z"/></g><g id="XMLID_15_"><path id="XMLID_5_" class="st1" d="M51.9 37.7c2.4-1.8 7.4-2.3 10.7-2.3 3.3 0 8.4.5 10.7 2.3v-6.5l7.1-2.2-17.8-5.6L44.8 29l7.1 2.2v6.5z"/></g><g id="XMLID_13_"><path id="XMLID_4_" class="st1" d="M79.1 32.6c-.4 0-.7-.3-.7-.6v-2.6c0-.4.3-.6.7-.6.4 0 .7.3.7.6V32c-.1.3-.4.6-.7.6z"/></g><g id="XMLID_11_"><path id="XMLID_3_" class="st1" d="M79.2 43.2c.2.1.4 0 .6-.1.1-.2.2-.4.2-.6.1-1.1.2-2.3.1-3.4.1.9.1 1.8 0 2.8 0 .3-.1.7.1 1 .1.3.6.5.8.3.1-.7.1-1.4.1-2.1 0-1.6.1-3.4-.6-4.9-.2-.5-.5-1-.4-1.6 0-.1.1-.3.1-.4.2-.5.1-1.1 0-1.7 0-.2 0-.3-.1-.5s-.4-.3-.6-.3c-.6-.2-1.3-.3-1.7.2-.2.2-.2.4-.3.7-.1.7 0 1.4.3 2 .2.3.4.7.4 1.1.1.6-.3 1.2-.7 1.8-.5.9-.9 1.9-.9 3-.1.6 0 1.3.2 1.9.1.3.4.5.7.4.1-.1.2-.3.2-.4.1-1 .1-2 .2-3.1.4.5.4 1.2.3 1.9-.1.6-.3 1.3-.3 1.9.3.1.5-.1.6-.3.1-.2.2-.5.2-.7.1-.9.3-1.8.4-2.8.3 1.1.3 2.3 0 3.5 0-.1-.1.2.1.4z"/></g><g id="XMLID_9_"><path id="XMLID_2_" class="st1" d="M77.4 52.3h-8.6l-6.1 8.2-6.1-8.2h-8.5l-14.4 27L48.2 84v17.7h29V84l14.6-4.7z"/></g></g></svg>